<?xml version="1.0" encoding="utf-8"?>
<!-- Generator: Adobe Illustrator 18.1.1, SVG Export Plug-In . SVG Version: 6.00 Build 0)  -->
<!DOCTYPE svg PUBLIC "-//W3C//DTD SVG 1.1//EN" "http://www.w3.org/Graphics/SVG/1.1/DTD/svg11.dtd">
<svg version="1.1" id="Layer_1" xmlns="http://www.w3.org/2000/svg" xmlns:xlink="http://www.w3.org/1999/xlink" x="0px" y="0px"
	 viewBox="0 0 30 30" enable-background="new 0 0 30 30" xml:space="preserve">
<line fill="none" stroke="#000000" stroke-width="2" stroke-linecap="round" stroke-miterlimit="10" x1="-59" y1="6" x2="-59" y2="22"/>
<rect x="-73" y="6" fill="#DD0000" width="14" height="8"/>
<polygon opacity="0.5" fill="#FFFFFF" points="-73,14 -59,6 -73,6 "/>
<line opacity="0.1" fill="none" stroke="#000000" stroke-width="2" stroke-linecap="round" stroke-miterlimit="10" x1="-70" y1="22" x2="-59" y2="22"/>
<line fill="none" stroke="#000000" stroke-width="4" stroke-linecap="round" stroke-miterlimit="10" x1="-19" y1="6" x2="-19" y2="22"/>
<rect x="-33" y="6" fill="#DD0000" width="14" height="10"/>
<polygon opacity="0.5" fill="#FFFFFF" points="-33,16 -19,6 -33,6 "/>
<line opacity="0.1" fill="none" stroke="#000000" stroke-width="4" stroke-linecap="round" stroke-miterlimit="10" x1="-29" y1="22" x2="-19" y2="22"/>
<g>
	<rect x="10" y="6" fill="#DD0000" width="14" height="10"/>
	<polygon fill="#FFFFFF" points="10,16 24,6 10,6 	"/>
</g>
<g>
	
		<line fill="none" stroke="#000000" stroke-width="4" stroke-linecap="round" stroke-miterlimit="10" x1="8" y1="6" x2="8" y2="22"/>
	
		<line opacity="0.25" fill="none" stroke="#000000" stroke-width="4" stroke-linecap="round" stroke-miterlimit="10" x1="8" y1="22" x2="18" y2="22"/>
	<path opacity="0.25" fill="#FFFFFF" d="M6,6v16c0,1.1,0.9,2,2,2V4C6.9,4,6,4.9,6,6z"/>
</g>
</svg>
